<svg xmlns="http://www.w3.org/2000/svg" xmlns:xlink="http://www.w3.org/1999/xlink" version="1.1" width="256" height="256" viewBox="0 0 256 256" xml:space="preserve">
<g style="stroke: none; stroke-width: 0; stroke-dasharray: none; stroke-linecap: butt; stroke-linejoin: miter; stroke-miterlimit: 10; fill: none; fill-rule: nonzero; opacity: 1;" transform="translate(1.4065934065934016 1.4065934065934016) scale(2.81 2.81)">
	<polygon points="13.01,22.43 7.96,17.39 10.48,14.87 13.01,17.4 20.55,9.86 23.07,12.37 " style="stroke: none; stroke-width: 1; stroke-dasharray: none; stroke-linecap: butt; stroke-linejoin: miter; stroke-miterlimit: 10; fill: rgb(109,109,109); fill-rule: nonzero; opacity: 1;" transform="  matrix(2.81 0 0 2.81 1.4065934065934016 1.4065934065934016) "/>
	<path d="M 15.514 31.528 c -8.83 0 -16.014 -7.184 -16.014 -16.014 S 6.683 -0.501 15.514 -0.501 s 16.014 7.184 16.014 16.014 S 24.344 31.528 15.514 31.528 z M 15.514 3.058 c -6.868 0 -12.456 5.588 -12.456 12.456 s 5.588 12.456 12.456 12.456 s 12.456 -5.588 12.456 -12.456 S 22.382 3.058 15.514 3.058 z" style="stroke: none; stroke-width: 1; stroke-dasharray: none; stroke-linecap: butt; stroke-linejoin: miter; stroke-miterlimit: 10; fill: rgb(109,109,109); fill-rule: nonzero; opacity: 1;" transform=" matrix(2.81 0 0 2.81 1.4065934065934016 1.4065934065934016) " stroke-linecap="round"/>
</g>
</svg>