<svg xmlns="http://www.w3.org/2000/svg" xmlns:xlink="http://www.w3.org/1999/xlink" version="1.1" width="256" height="256" viewBox="0 0 256 256" xml:space="preserve">
<g style="stroke: none; stroke-width: 0; stroke-dasharray: none; stroke-linecap: butt; stroke-linejoin: miter; stroke-miterlimit: 10; fill: none; fill-rule: nonzero; opacity: 1;" transform="translate(1.4065934065934016 1.4065934065934016) scale(2.81 2.81)">
	<path d="M 70.341 90 H 19.659 c -0.635 0 -1.232 -0.302 -1.609 -0.813 s -0.489 -1.17 -0.302 -1.777 l 1.597 -5.177 c 1.436 -4.655 5.675 -7.783 10.547 -7.783 h 30.216 c 4.871 0 9.109 3.128 10.546 7.783 l 1.598 5.177 c 0.188 0.606 0.075 1.267 -0.302 1.777 S 70.976 90 70.341 90 z M 22.369 86 h 45.262 l -0.799 -2.587 c -0.916 -2.969 -3.618 -4.963 -6.724 -4.963 H 29.892 c -3.106 0 -5.809 1.994 -6.725 4.963 L 22.369 86 z" style="stroke: none; stroke-width: 1; stroke-dasharray: none; stroke-linecap: butt; stroke-linejoin: miter; stroke-miterlimit: 10; fill: rgb(79,79,79); fill-rule: nonzero; opacity: 1;" transform=" matrix(1 0 0 1 0 0) " stroke-linecap="round"/>
	<path d="M 54.791 78.122 H 35.208 c -0.635 0 -1.232 -0.302 -1.609 -0.813 s -0.489 -1.17 -0.302 -1.777 l 4.623 -14.983 c 0.259 -0.838 1.034 -1.41 1.911 -1.41 h 10.338 c 0.878 0 1.652 0.572 1.911 1.41 l 4.622 14.983 c 0.188 0.607 0.075 1.267 -0.302 1.777 S 55.426 78.122 54.791 78.122 z M 37.918 74.122 h 14.163 l -3.388 -10.983 h -7.386 L 37.918 74.122 z" style="stroke: none; stroke-width: 1; stroke-dasharray: none; stroke-linecap: butt; stroke-linejoin: miter; stroke-miterlimit: 10; fill: rgb(79,79,79); fill-rule: nonzero; opacity: 1;" transform=" matrix(1 0 0 1 0 0) " stroke-linecap="round"/>
	<path d="M 21.459 43.922 c -0.02 0 -0.04 0 -0.06 -0.001 c -9.531 -0.279 -16.996 -7.971 -16.996 -17.51 v -13.76 c 0 -1.104 0.896 -2 2 -2 h 14.573 c 1.104 0 2 0.896 2 2 s -0.896 2 -2 2 H 8.403 v 11.76 c 0 7.361 5.76 13.296 13.113 13.512 c 1.104 0.032 1.973 0.954 1.94 2.058 C 23.425 43.065 22.537 43.922 21.459 43.922 z" style="stroke: none; stroke-width: 1; stroke-dasharray: none; stroke-linecap: butt; stroke-linejoin: miter; stroke-miterlimit: 10; fill: rgb(79,79,79); fill-rule: nonzero; opacity: 1;" transform=" matrix(1 0 0 1 0 0) " stroke-linecap="round"/>
	<path d="M 68.539 43.922 c -1.077 0 -1.967 -0.857 -1.998 -1.941 c -0.032 -1.104 0.837 -2.025 1.94 -2.058 c 7.354 -0.215 13.115 -6.15 13.115 -13.512 v -11.76 H 69.023 c -1.104 0 -2 -0.896 -2 -2 s 0.896 -2 2 -2 h 14.573 c 1.104 0 2 0.896 2 2 v 13.76 c 0 9.541 -7.467 17.232 -16.998 17.51 C 68.578 43.922 68.559 43.922 68.539 43.922 z" style="stroke: none; stroke-width: 1; stroke-dasharray: none; stroke-linecap: butt; stroke-linejoin: miter; stroke-miterlimit: 10; fill: rgb(79,79,79); fill-rule: nonzero; opacity: 1;" transform=" matrix(1 0 0 1 0 0) " stroke-linecap="round"/>
	<path d="M 45 63.139 c -14.35 0 -26.023 -11.674 -26.023 -26.023 V 8.766 c 0 -2.435 -0.914 -4.059 -2.795 -4.964 c -0.841 -0.405 -1.29 -1.337 -1.082 -2.247 S 16.116 0 17.049 0 h 55.902 c 0.934 0 1.742 0.646 1.95 1.555 c 0.207 0.91 -0.242 1.842 -1.083 2.247 c -1.881 0.905 -2.795 2.529 -2.795 4.964 v 28.349 C 71.023 51.465 59.35 63.139 45 63.139 z M 21.898 4 c 0.708 1.366 1.078 2.973 1.078 4.766 v 28.349 c 0 12.144 9.88 22.023 22.023 22.023 s 22.023 -9.88 22.023 -22.023 V 8.766 c 0 -1.794 0.37 -3.4 1.078 -4.766 H 21.898 z" style="stroke: none; stroke-width: 1; stroke-dasharray: none; stroke-linecap: butt; stroke-linejoin: miter; stroke-miterlimit: 10; fill: rgb(79,79,79); fill-rule: nonzero; opacity: 1;" transform=" matrix(1 0 0 1 0 0) " stroke-linecap="round"/>
</g>
</svg>